{
  "accessors": [
    {
      "bufferView": 2,
      "componentType": 5126,
      "count": 6508,
      "max": [
        4.101892948150635,
        10.117544174194336,
        10.117535591125488
      ],
      "min": [
        -34.01685333251953,
        -10.117537498474121,
        -10.117536544799805
      ],
      "type": "VEC3"
    },
    {
      "bufferView": 2,
      "byteOffset": 78096,
      "componentType": 5126,
      "count": 6508,
      "max": [
        1.0,
        1.0,
        1.0
      ],
      "min": [
        -1.0,
        -1.0,
        -0.9999997615814209
      ],
      "type": "VEC3"
    },
    {
      "bufferView": 3,
      "componentType": 5126,
      "count": 6508,
      "max": [
        0.9999977350234985,
        1.0,
        1.0,
        1.0
      ],
      "min": [
        -0.9999977946281433,
        -1.0,
        -1.0,
        -1.0
      ],
      "type": "VEC4"
    },
    {
      "bufferView": 1,
      "componentType": 5126,
      "count": 6508,
      "max": [
        0.9999915361404419,
        0.49816611409187317
      ],
      "min": [
        8.872317266650498e-06,
        0.0
      ],
      "type": "VEC2"
    },
    {
      "bufferView": 1,
      "byteOffset": 52064,
      "componentType": 5126,
      "count": 6508,
      "max": [
        0.9999915361404419,
        0.49816611409187317
      ],
      "min": [
        8.872317266650498e-06,
        0.0
      ],
      "type": "VEC2"
    },
    {
      "bufferView": 1,
      "byteOffset": 104128,
      "componentType": 5126,
      "count": 6508,
      "max": [
        0.9999915361404419,
        0.49816611409187317
      ],
      "min": [
        8.872317266650498e-06,
        0.0
      ],
      "type": "VEC2"
    },
    {
      "bufferView": 1,
      "byteOffset": 156192,
      "componentType": 5126,
      "count": 6508,
      "max": [
        0.9999915361404419,
        0.49816611409187317
      ],
      "min": [
        8.872317266650498e-06,
        0.0
      ],
      "type": "VEC2"
    },
    {
      "bufferView": 0,
      "componentType": 5125,
      "count": 17880,
      "type": "SCALAR"
    },
    {
      "bufferView": 2,
      "byteOffset": 156192,
      "componentType": 5126,
      "count": 6508,
      "max": [
        4.101892948150635,
        10.117546081542969,
        10.117535591125488
      ],
      "min": [
        -34.01685333251953,
        -10.117537498474121,
        -10.117536544799805
      ],
      "type": "VEC3"
    },
    {
      "bufferView": 2,
      "byteOffset": 234288,
      "componentType": 5126,
      "count": 6508,
      "max": [
        1.0,
        1.0,
        1.0
      ],
      "min": [
        -1.0,
        -1.0,
        -0.9999997615814209
      ],
      "type": "VEC3"
    },
    {
      "bufferView": 3,
      "byteOffset": 104128,
      "componentType": 5126,
      "count": 6508,
      "max": [
        0.9999977350234985,
        1.0,
        1.0,
        1.0
      ],
      "min": [
        -0.9999977946281433,
        -1.0,
        -1.0,
        -1.0
      ],
      "type": "VEC4"
    },
    {
      "bufferView": 1,
      "byteOffset": 208256,
      "componentType": 5126,
      "count": 6508,
      "max": [
        0.9999915361404419,
        0.49816611409187317
      ],
      "min": [
        8.872317266650498e-06,
        0.0
      ],
      "type": "VEC2"
    },
    {
      "bufferView": 1,
      "byteOffset": 260320,
      "componentType": 5126,
      "count": 6508,
      "max": [
        0.9999915361404419,
        0.49816611409187317
      ],
      "min": [
        8.872317266650498e-06,
        0.0
      ],
      "type": "VEC2"
    },
    {
      "bufferView": 1,
      "byteOffset": 312384,
      "componentType": 5126,
      "count": 6508,
      "max": [
        0.9999915361404419,
        0.49816611409187317
      ],
      "min": [
        8.872317266650498e-06,
        0.0
      ],
      "type": "VEC2"
    },
    {
      "bufferView": 1,
      "byteOffset": 364448,
      "componentType": 5126,
      "count": 6508,
      "max": [
        0.9999915361404419,
        0.49816611409187317
      ],
      "min": [
        8.872317266650498e-06,
        0.0
      ],
      "type": "VEC2"
    },
    {
      "bufferView": 0,
      "byteOffset": 71520,
      "componentType": 5125,
      "count": 17880,
      "type": "SCALAR"
    },
    {
      "bufferView": 2,
      "byteOffset": 312384,
      "componentType": 5126,
      "count": 3254,
      "max": [
        4.101892948150635,
        10.117539405822754,
        10.117535591125488
      ],
      "min": [
        -2.5643258094787598,
        -10.117537498474121,
        -10.117536544799805
      ],
      "type": "VEC3"
    },
    {
      "bufferView": 2,
      "byteOffset": 351432,
      "componentType": 5126,
      "count": 3254,
      "max": [
        1.0,
        1.0,
        1.0
      ],
      "min": [
        -1.0,
        -1.0,
        -0.9999997019767761
      ],
      "type": "VEC3"
    },
    {
      "bufferView": 3,
      "byteOffset": 208256,
      "componentType": 5126,
      "count": 3254,
      "max": [
        0.999951958656311,
        1.0,
        1.0,
        1.0
      ],
      "min": [
        -0.9999977946281433,
        -1.0,
        -1.0,
        -1.0
      ],
      "type": "VEC4"
    },
    {
      "bufferView": 1,
      "byteOffset": 416512,
      "componentType": 5126,
      "count": 3254,
      "max": [
        0.9999915361404419,
        0.49816611409187317
      ],
      "min": [
        8.872317266650498e-06,
        0.0
      ],
      "type": "VEC2"
    },
    {
      "bufferView": 1,
      "byteOffset": 442544,
      "componentType": 5126,
      "count": 3254,
      "max": [
        0.9999915361404419,
        0.49816611409187317
      ],
      "min": [
        8.872317266650498e-06,
        0.0
      ],
      "type": "VEC2"
    },
    {
      "bufferView": 1,
      "byteOffset": 468576,
      "componentType": 5126,
      "count": 3254,
      "max": [
        0.9999915361404419,
        0.49816611409187317
      ],
      "min": [
        8.872317266650498e-06,
        0.0
      ],
      "type": "VEC2"
    },
    {
      "bufferView": 1,
      "byteOffset": 494608,
      "componentType": 5126,
      "count": 3254,
      "max": [
        0.9999915361404419,
        0.49816611409187317
      ],
      "min": [
        8.872317266650498e-06,
        0.0
      ],
      "type": "VEC2"
    },
    {
      "bufferView": 0,
      "byteOffset": 143040,
      "componentType": 5125,
      "count": 8940,
      "type": "SCALAR"
    },
    {
      "bufferView": 2,
      "byteOffset": 390480,
      "componentType": 5126,
      "count": 85,
      "max": [
        9.143766403198242,
        27.561119079589844,
        5.614997863769531
      ],
      "min": [
        -27.065980911254883,
        -4.9189958572387695,
        -5.743633270263672
      ],
      "type": "VEC3"
    },
    {
      "bufferView": 2,
      "byteOffset": 391500,
      "componentType": 5126,
      "count": 85,
      "max": [
        0.9910601377487183,
        1.0,
        0.5001795291900635
      ],
      "min": [
        -0.9910601377487183,
        -0.8674019575119019,
        0.0
      ],
      "type": "VEC3"
    },
    {
      "bufferView": 1,
      "byteOffset": 520640,
      "componentType": 5126,
      "count": 85,
      "max": [
        0.9832215905189514,
        0.9934465289115906
      ],
      "min": [
        0.01622891053557396,
        0.2325752079486847
      ],
      "type": "VEC2"
    },
    {
      "bufferView": 1,
      "byteOffset": 521320,
      "componentType": 5126,
      "count": 85,
      "max": [
        0.9832215905189514,
        0.9934465289115906
      ],
      "min": [
        0.01622891053557396,
        0.2325752079486847
      ],
      "type": "VEC2"
    },
    {
      "bufferView": 1,
      "byteOffset": 522000,
      "componentType": 5126,
      "count": 85,
      "max": [
        0.9832215905189514,
        0.9934465289115906
      ],
      "min": [
        0.01622891053557396,
        0.2325752079486847
      ],
      "type": "VEC2"
    },
    {
      "bufferView": 0,
      "byteOffset": 178800,
      "componentType": 5125,
      "count": 318,
      "type": "SCALAR"
    },
    {
      "bufferView": 2,
      "byteOffset": 392520,
      "componentType": 5126,
      "count": 12130,
      "max": [
        22.226119995117188,
        13.517646789550781,
        28.86309051513672
      ],
      "min": [
        -21.711854934692383,
        -77.00605010986328,
        -7.091248512268066
      ],
      "type": "VEC3"
    },
    {
      "bufferView": 2,
      "byteOffset": 538080,
      "componentType": 5126,
      "count": 12130,
      "max": [
        1.0,
        1.0,
        1.0
      ],
      "min": [
        -1.0,
        -1.0,
        -1.0
      ],
      "type": "VEC3"
    },
    {
      "bufferView": 3,
      "byteOffset": 260320,
      "componentType": 5126,
      "count": 12130,
      "max": [
        1.0,
        1.0,
        1.0,
        1.0
      ],
      "min": [
        -1.0,
        -1.0,
        -1.0,
        -1.0
      ],
      "type": "VEC4"
    },
    {
      "bufferView": 1,
      "byteOffset": 522680,
      "componentType": 5126,
      "count": 12130,
      "max": [
        0.9993441104888916,
        0.9977244734764099
      ],
      "min": [
        0.000971152214333415,
        0.0007089814753271639
      ],
      "type": "VEC2"
    },
    {
      "bufferView": 1,
      "byteOffset": 619720,
      "componentType": 5126,
      "count": 12130,
      "max": [
        0.9993441104888916,
        0.9977244734764099
      ],
      "min": [
        0.000971152214333415,
        0.0007089814753271639
      ],
      "type": "VEC2"
    },
    {
      "bufferView": 1,
      "byteOffset": 716760,
      "componentType": 5126,
      "count": 12130,
      "max": [
        0.9993441104888916,
        0.9977244734764099
      ],
      "min": [
        0.000971152214333415,
        0.0007089814753271639
      ],
      "type": "VEC2"
    },
    {
      "bufferView": 1,
      "byteOffset": 813800,
      "componentType": 5126,
      "count": 12130,
      "max": [
        0.9993441104888916,
        0.9977244734764099
      ],
      "min": [
        0.000971152214333415,
        0.0007089814753271639
      ],
      "type": "VEC2"
    },
    {
      "bufferView": 1,
      "byteOffset": 910840,
      "componentType": 5126,
      "count": 12130,
      "max": [
        0.9993441104888916,
        0.9977244734764099
      ],
      "min": [
        0.000971152214333415,
        0.0007089814753271639
      ],
      "type": "VEC2"
    },
    {
      "bufferView": 0,
      "byteOffset": 180072,
      "componentType": 5125,
      "count": 37692,
      "type": "SCALAR"
    },
    {
      "bufferView": 2,
      "byteOffset": 683640,
      "componentType": 5126,
      "count": 12130,
      "max": [
        22.226119995117188,
        13.517646789550781,
        28.86309051513672
      ],
      "min": [
        -21.711854934692383,
        -77.00605010986328,
        -7.091248512268066
      ],
      "type": "VEC3"
    },
    {
      "bufferView": 2,
      "byteOffset": 829200,
      "componentType": 5126,
      "count": 12130,
      "max": [
        1.0,
        1.0,
        1.0
      ],
      "min": [
        -1.0,
        -1.0,
        -1.0
      ],
      "type": "VEC3"
    },
    {
      "bufferView": 3,
      "byteOffset": 454400,
      "componentType": 5126,
      "count": 12130,
      "max": [
        1.0,
        1.0,
        1.0,
        1.0
      ],
      "min": [
        -1.0,
        -1.0,
        -1.0,
        -1.0
      ],
      "type": "VEC4"
    },
    {
      "bufferView": 1,
      "byteOffset": 1007880,
      "componentType": 5126,
      "count": 12130,
      "max": [
        0.9993441104888916,
        0.9977244734764099
      ],
      "min": [
        0.000971152214333415,
        0.0007089814753271639
      ],
      "type": "VEC2"
    },
    {
      "bufferView": 1,
      "byteOffset": 1104920,
      "componentType": 5126,
      "count": 12130,
      "max": [
        0.9993441104888916,
        0.9977244734764099
      ],
      "min": [
        0.000971152214333415,
        0.0007089814753271639
      ],
      "type": "VEC2"
    },
    {
      "bufferView": 1,
      "byteOffset": 1201960,
      "componentType": 5126,
      "count": 12130,
      "max": [
        0.9993441104888916,
        0.9977244734764099
      ],
      "min": [
        0.000971152214333415,
        0.0007089814753271639
      ],
      "type": "VEC2"
    },
    {
      "bufferView": 1,
      "byteOffset": 1299000,
      "componentType": 5126,
      "count": 12130,
      "max": [
        0.9993441104888916,
        0.9977244734764099
      ],
      "min": [
        0.000971152214333415,
        0.0007089814753271639
      ],
      "type": "VEC2"
    },
    {
      "bufferView": 1,
      "byteOffset": 1396040,
      "componentType": 5126,
      "count": 12130,
      "max": [
        0.9993441104888916,
        0.9977244734764099
      ],
      "min": [
        0.000971152214333415,
        0.0007089814753271639
      ],
      "type": "VEC2"
    },
    {
      "bufferView": 0,
      "byteOffset": 330840,
      "componentType": 5125,
      "count": 672,
      "type": "SCALAR"
    },
    {
      "bufferView": 2,
      "byteOffset": 974760,
      "componentType": 5126,
      "count": 98,
      "max": [
        2.0356717109680176,
        2.0356717109680176,
        6.8366851806640625
      ],
      "min": [
        -2.1443634033203125,
        -2.0356717109680176,
        0.0
      ],
      "type": "VEC3"
    },
    {
      "bufferView": 2,
      "byteOffset": 975936,
      "componentType": 5126,
      "count": 98,
      "max": [
        0.997385561466217,
        0.997385561466217,
        1.0
      ],
      "min": [
        -0.9973856210708618,
        -0.997385561466217,
        -1.0
      ],
      "type": "VEC3"
    },
    {
      "bufferView": 3,
      "byteOffset": 648480,
      "componentType": 5126,
      "count": 98,
      "max": [
        1.0,
        0.9999502897262573,
        0.9459733366966248,
        1.0
      ],
      "min": [
        -0.9999502897262573,
        -0.9999502897262573,
        -0.8564336895942688,
        1.0
      ],
      "type": "VEC4"
    },
    {
      "bufferView": 1,
      "byteOffset": 1493080,
      "componentType": 5126,
      "count": 98,
      "max": [
        0.9779509902000427,
        0.7656773924827576
      ],
      "min": [
        0.01464193593710661,
        0.019999999552965164
      ],
      "type": "VEC2"
    },
    {
      "bufferView": 1,
      "byteOffset": 1493864,
      "componentType": 5126,
      "count": 98,
      "max": [
        0.9779509902000427,
        0.7656773924827576
      ],
      "min": [
        0.01464193593710661,
        0.019999999552965164
      ],
      "type": "VEC2"
    },
    {
      "bufferView": 1,
      "byteOffset": 1494648,
      "componentType": 5126,
      "count": 98,
      "max": [
        0.9779509902000427,
        0.7656773924827576
      ],
      "min": [
        0.01464193593710661,
        0.019999999552965164
      ],
      "type": "VEC2"
    },
    {
      "bufferView": 1,
      "byteOffset": 1495432,
      "componentType": 5126,
      "count": 98,
      "max": [
        0.9779509902000427,
        0.7656773924827576
      ],
      "min": [
        0.01464193593710661,
        0.019999999552965164
      ],
      "type": "VEC2"
    },
    {
      "bufferView": 0,
      "byteOffset": 333528,
      "componentType": 5125,
      "count": 234,
      "type": "SCALAR"
    },
    {
      "bufferView": 2,
      "byteOffset": 977112,
      "componentType": 5126,
      "count": 98,
      "max": [
        2.0356717109680176,
        2.0356717109680176,
        6.8366851806640625
      ],
      "min": [
        -2.1443634033203125,
        -2.0356717109680176,
        0.0
      ],
      "type": "VEC3"
    },
    {
      "bufferView": 2,
      "byteOffset": 978288,
      "componentType": 5126,
      "count": 98,
      "max": [
        0.997385561466217,
        0.997385561466217,
        1.0
      ],
      "min": [
        -0.9973856210708618,
        -0.997385561466217,
        -1.0
      ],
      "type": "VEC3"
    },
    {
      "bufferView": 3,
      "byteOffset": 650048,
      "componentType": 5126,
      "count": 98,
      "max": [
        1.0,
        0.9999502897262573,
        0.9459733366966248,
        1.0
      ],
      "min": [
        -0.9999502897262573,
        -0.9999502897262573,
        -0.8564336895942688,
        1.0
      ],
      "type": "VEC4"
    },
    {
      "bufferView": 1,
      "byteOffset": 1496216,
      "componentType": 5126,
      "count": 98,
      "max": [
        0.9779509902000427,
        0.7656773924827576
      ],
      "min": [
        0.01464193593710661,
        0.019999999552965164
      ],
      "type": "VEC2"
    },
    {
      "bufferView": 1,
      "byteOffset": 1497000,
      "componentType": 5126,
      "count": 98,
      "max": [
        0.9779509902000427,
        0.7656773924827576
      ],
      "min": [
        0.01464193593710661,
        0.019999999552965164
      ],
      "type": "VEC2"
    },
    {
      "bufferView": 1,
      "byteOffset": 1497784,
      "componentType": 5126,
      "count": 98,
      "max": [
        0.9779509902000427,
        0.7656773924827576
      ],
      "min": [
        0.01464193593710661,
        0.019999999552965164
      ],
      "type": "VEC2"
    },
    {
      "bufferView": 1,
      "byteOffset": 1498568,
      "componentType": 5126,
      "count": 98,
      "max": [
        0.9779509902000427,
        0.7656773924827576
      ],
      "min": [
        0.01464193593710661,
        0.019999999552965164
      ],
      "type": "VEC2"
    },
    {
      "bufferView": 0,
      "byteOffset": 334464,
      "componentType": 5125,
      "count": 234,
      "type": "SCALAR"
    },
    {
      "bufferView": 2,
      "byteOffset": 979464,
      "componentType": 5126,
      "count": 296,
      "max": [
        3.5766818523406982,
        1.0101069211959839,
        1.954003095626831
      ],
      "min": [
        -3.5766818523406982,
        -1.0101066827774048,
        -1.9540038108825684
      ],
      "type": "VEC3"
    },
    {
      "bufferView": 2,
      "byteOffset": 983016,
      "componentType": 5126,
      "count": 296,
      "max": [
        1.0,
        1.0,
        0.9986752271652222
      ],
      "min": [
        -1.0,
        -1.0,
        -0.9986752271652222
      ],
      "type": "VEC3"
    },
    {
      "bufferView": 3,
      "byteOffset": 651616,
      "componentType": 5126,
      "count": 296,
      "max": [
        0.9999528527259827,
        0.9992352724075317,
        0.9965384602546692,
        1.0
      ],
      "min": [
        -0.9931498169898987,
        -0.9992384910583496,
        -0.9999495148658752,
        1.0
      ],
      "type": "VEC4"
    },
    {
      "bufferView": 1,
      "byteOffset": 1499352,
      "componentType": 5126,
      "count": 296,
      "max": [
        0.9861086010932922,
        0.9913704991340637
      ],
      "min": [
        0.006682366132736206,
        0.0066978782415390015
      ],
      "type": "VEC2"
    },
    {
      "bufferView": 1,
      "byteOffset": 1501720,
      "componentType": 5126,
      "count": 296,
      "max": [
        0.9861086010932922,
        0.9913704991340637
      ],
      "min": [
        0.006682366132736206,
        0.0066978782415390015
      ],
      "type": "VEC2"
    },
    {
      "bufferView": 1,
      "byteOffset": 1504088,
      "componentType": 5126,
      "count": 296,
      "max": [
        0.9861086010932922,
        0.9913704991340637
      ],
      "min": [
        0.006682366132736206,
        0.0066978782415390015
      ],
      "type": "VEC2"
    },
    {
      "bufferView": 1,
      "byteOffset": 1506456,
      "componentType": 5126,
      "count": 296,
      "max": [
        0.9861086010932922,
        0.9913704991340637
      ],
      "min": [
        0.006682366132736206,
        0.0066978782415390015
      ],
      "type": "VEC2"
    },
    {
      "bufferView": 0,
      "byteOffset": 335400,
      "componentType": 5125,
      "count": 906,
      "type": "SCALAR"
    }
  ],
  "asset": {
    "extras": {
      "author": "Shonan (https://sketchfab.com/shonan)",
      "license": "CC-BY-4.0 (http://creativecommons.org/licenses/by/4.0/)",
      "source": "https://sketchfab.com/3d-models/just-a-truck-56f462ac530840999e3f17a0163fbcac",
      "title": "Just a truck"
    },
    "generator": "Sketchfab-12.68.0",
    "version": "2.0"
  },
  "bufferViews": [
    {
      "buffer": 0,
      "byteLength": 339024,
      "name": "floatBufferViews",
      "target": 34963
    },
    {
      "buffer": 0,
      "byteLength": 1508824,
      "byteOffset": 339024,
      "byteStride": 8,
      "name": "floatBufferViews",
      "target": 34962
    },
    {
      "buffer": 0,
      "byteLength": 986568,
      "byteOffset": 1847848,
      "byteStride": 12,
      "name": "floatBufferViews",
      "target": 34962
    },
    {
      "buffer": 0,
      "byteLength": 656352,
      "byteOffset": 2834416,
      "byteStride": 16,
      "name": "floatBufferViews",
      "target": 34962
    }
  ],
  "buffers": [
    {
      "byteLength": 3490768,
      "uri": "scene.bin"
    }
  ],
  "images": [
    {
      "uri": "textures/TireMat_baseColor.jpeg"
    },
    {
      "uri": "textures/TireMat_metallicRoughness.png"
    },
    {
      "uri": "textures/TireMat_normal.jpeg"
    },
    {
      "uri": "textures/GlassMatV2_baseColor.png"
    },
    {
      "uri": "textures/GlassMatV2_metallicRoughness.png"
    },
    {
      "uri": "textures/MatMetal_baseColor.png"
    },
    {
      "uri": "textures/MatMetal_metallicRoughness.png"
    },
    {
      "uri": "textures/MatMetal_normal.jpeg"
    },
    {
      "uri": "textures/WoodenMat_baseColor.jpeg"
    },
    {
      "uri": "textures/WoodenMat_metallicRoughness.png"
    },
    {
      "uri": "textures/WoodenMat_normal.jpeg"
    },
    {
      "uri": "textures/CoffeeMat_baseColor.jpeg"
    },
    {
      "uri": "textures/CoffeeMat_metallicRoughness.png"
    },
    {
      "uri": "textures/CoffeeMat_normal.jpeg"
    },
    {
      "uri": "textures/RetroviseurMat_baseColor.jpeg"
    },
    {
      "uri": "textures/RetroviseurMat_metallicRoughness.png"
    },
    {
      "uri": "textures/RetroviseurMat_normal.jpeg"
    }
  ],
  "materials": [
    {
      "name": "TireMat",
      "normalTexture": {
        "index": 2
      },
      "pbrMetallicRoughness": {
        "baseColorFactor": [
          0.41427,
          0.41427,
          0.41427,
          1.0
        ],
        "baseColorTexture": {
          "index": 0
        },
        "metallicRoughnessTexture": {
          "index": 1
        }
      }
    },
    {
      "alphaMode": "BLEND",
      "name": "GlassMatV2",
      "pbrMetallicRoughness": {
        "baseColorFactor": [
          0.170012,
          0.170012,
          0.170012,
          1.0
        ],
        "baseColorTexture": {
          "index": 3
        },
        "metallicRoughnessTexture": {
          "index": 4
        },
        "roughnessFactor": 0.50495
      }
    },
    {
      "name": "MatMetal",
      "normalTexture": {
        "index": 7
      },
      "occlusionTexture": {
        "index": 6
      },
      "pbrMetallicRoughness": {
        "baseColorTexture": {
          "index": 5
        },
        "metallicRoughnessTexture": {
          "index": 6
        }
      }
    },
    {
      "name": "WoodenMat",
      "normalTexture": {
        "index": 10
      },
      "occlusionTexture": {
        "index": 9
      },
      "pbrMetallicRoughness": {
        "baseColorTexture": {
          "index": 8
        },
        "metallicRoughnessTexture": {
          "index": 9
        }
      }
    },
    {
      "name": "CoffeeMat",
      "normalTexture": {
        "index": 13
      },
      "pbrMetallicRoughness": {
        "baseColorTexture": {
          "index": 11
        },
        "metallicRoughnessTexture": {
          "index": 12
        }
      }
    },
    {
      "name": "RetroviseurMat",
      "normalTexture": {
        "index": 16
      },
      "pbrMetallicRoughness": {
        "baseColorTexture": {
          "index": 14
        },
        "metallicRoughnessTexture": {
          "index": 15
        }
      }
    }
  ],
  "meshes": [
    {
      "name": "Object_0",
      "primitives": [
        {
          "attributes": {
            "NORMAL": 1,
            "POSITION": 0,
            "TANGENT": 2,
            "TEXCOORD_0": 3,
            "TEXCOORD_1": 4,
            "TEXCOORD_2": 5,
            "TEXCOORD_3": 6
          },
          "indices": 7,
          "material": 0,
          "mode": 4
        }
      ]
    },
    {
      "name": "Object_1",
      "primitives": [
        {
          "attributes": {
            "NORMAL": 9,
            "POSITION": 8,
            "TANGENT": 10,
            "TEXCOORD_0": 11,
            "TEXCOORD_1": 12,
            "TEXCOORD_2": 13,
            "TEXCOORD_3": 14
          },
          "indices": 15,
          "material": 0,
          "mode": 4
        }
      ]
    },
    {
      "name": "Object_2",
      "primitives": [
        {
          "attributes": {
            "NORMAL": 17,
            "POSITION": 16,
            "TANGENT": 18,
            "TEXCOORD_0": 19,
            "TEXCOORD_1": 20,
            "TEXCOORD_2": 21,
            "TEXCOORD_3": 22
          },
          "indices": 23,
          "material": 0,
          "mode": 4
        }
      ]
    },
    {
      "name": "Object_3",
      "primitives": [
        {
          "attributes": {
            "NORMAL": 25,
            "POSITION": 24,
            "TEXCOORD_0": 26,
            "TEXCOORD_1": 27,
            "TEXCOORD_2": 28
          },
          "indices": 29,
          "material": 1,
          "mode": 4
        }
      ]
    },
    {
      "name": "Object_4",
      "primitives": [
        {
          "attributes": {
            "NORMAL": 31,
            "POSITION": 30,
            "TANGENT": 32,
            "TEXCOORD_0": 33,
            "TEXCOORD_1": 34,
            "TEXCOORD_2": 35,
            "TEXCOORD_3": 36,
            "TEXCOORD_4": 37
          },
          "indices": 38,
          "material": 2,
          "mode": 4
        }
      ]
    },
    {
      "name": "Object_5",
      "primitives": [
        {
          "attributes": {
            "NORMAL": 40,
            "POSITION": 39,
            "TANGENT": 41,
            "TEXCOORD_0": 42,
            "TEXCOORD_1": 43,
            "TEXCOORD_2": 44,
            "TEXCOORD_3": 45,
            "TEXCOORD_4": 46
          },
          "indices": 47,
          "material": 3,
          "mode": 4
        }
      ]
    },
    {
      "name": "Object_6",
      "primitives": [
        {
          "attributes": {
            "NORMAL": 49,
            "POSITION": 48,
            "TANGENT": 50,
            "TEXCOORD_0": 51,
            "TEXCOORD_1": 52,
            "TEXCOORD_2": 53,
            "TEXCOORD_3": 54
          },
          "indices": 55,
          "material": 4,
          "mode": 4
        }
      ]
    },
    {
      "name": "Object_7",
      "primitives": [
        {
          "attributes": {
            "NORMAL": 57,
            "POSITION": 56,
            "TANGENT": 58,
            "TEXCOORD_0": 59,
            "TEXCOORD_1": 60,
            "TEXCOORD_2": 61,
            "TEXCOORD_3": 62
          },
          "indices": 63,
          "material": 4,
          "mode": 4
        }
      ]
    },
    {
      "name": "Object_8",
      "primitives": [
        {
          "attributes": {
            "NORMAL": 65,
            "POSITION": 64,
            "TANGENT": 66,
            "TEXCOORD_0": 67,
            "TEXCOORD_1": 68,
            "TEXCOORD_2": 69,
            "TEXCOORD_3": 70
          },
          "indices": 71,
          "material": 5,
          "mode": 4
        }
      ]
    }
  ],
  "nodes": [
    {
      "children": [
        1
      ],
      "matrix": [
        0.00043596330215223134,
        0.0,
        0.0,
        0.0,
        0.0,
        9.680329918820426e-20,
        -0.00043596330215223134,
        0.0,
        0.0,
        0.00043596330215223134,
        9.680329918820426e-20,
        0.0,
        0.0,
        0.0,
        0.0,
        1.0
      ],
      "name": "Sketchfab_model"
    },
    {
      "children": [
        2
      ],
      "name": "root"
    },
    {
      "children": [
        3,
        5,
        7,
        9,
        11,
        14,
        16,
        18
      ],
      "matrix": [
        1.0,
        0.0,
        0.0,
        0.0,
        0.0,
        2.220446049250313e-16,
        1.0,
        0.0,
        0.0,
        -1.0,
        2.220446049250313e-16,
        0.0,
        0.0,
        0.0,
        0.0,
        1.0
      ],
      "name": "GLTF_SceneRootNode"
    },
    {
      "children": [
        4
      ],
      "matrix": [
        -99.99999237060547,
        -8.078601240413263e-06,
        8.111152055789717e-06,
        0.0,
        1.056520159181673e-05,
        -92.4075698852539,
        38.218528747558594,
        0.0,
        4.407805135997478e-06,
        38.21860122680664,
        92.4077377319336,
        0.0,
        -2948.685546875,
        -202.09716796875,
        -4245.791015625,
        1.0
      ],
      "name": "Tire001_0"
    },
    {
      "mesh": 0,
      "name": "Object_4"
    },
    {
      "children": [
        6
      ],
      "matrix": [
        -99.99999237060547,
        -1.224646841997256e-14,
        1.5099579286470544e-05,
        0.0,
        1.5099579286470544e-05,
        -6.123232092403912e-15,
        99.99999237060547,
        0.0,
        -1.2246465878873718e-14,
        100.0,
        6.1232337864698064e-15,
        0.0,
        -2948.685546875,
        -202.097900390625,
        2597.2900390625,
        1.0
      ],
      "name": "Tire_1"
    },
    {
      "mesh": 1,
      "name": "Object_6"
    },
    {
      "children": [
        8
      ],
      "matrix": [
        3.139164255117066e-05,
        100.0,
        6.1232337864698064e-15,
        0.0,
        1.5099579286470544e-05,
        -4.746129704524815e-12,
        99.99999237060547,
        0.0,
        99.99999237060547,
        -3.139164618914947e-05,
        -1.5099579286470544e-05,
        0.0,
        -1453.5390625,
        -48.4736328125,
        -5799.703125,
        1.0
      ],
      "name": "Tire002_2"
    },
    {
      "mesh": 2,
      "name": "Object_8"
    },
    {
      "children": [
        10
      ],
      "matrix": [
        100.0,
        0.0,
        0.0,
        0.0,
        0.0,
        6.1232337864698064e-15,
        -100.0,
        0.0,
        0.0,
        100.0,
        6.1232337864698064e-15,
        0.0,
        -516.947265625,
        2751.262451171875,
        2820.07421875,
        1.0
      ],
      "name": "Plane003_3"
    },
    {
      "mesh": 3,
      "name": "Object_10"
    },
    {
      "children": [
        12,
        13
      ],
      "matrix": [
        100.0,
        0.0,
        0.0,
        0.0,
        0.0,
        7.347880374357178e-15,
        -119.99999237060547,
        0.0,
        0.0,
        119.99999237060547,
        7.347880374357178e-15,
        0.0,
        -1436.3203125,
        126.420654296875,
        -5215.6767578125,
        1.0
      ],
      "name": "Box080_4"
    },
    {
      "mesh": 4,
      "name": "Object_12"
    },
    {
      "mesh": 5,
      "name": "Object_13"
    },
    {
      "children": [
        15
      ],
      "matrix": [
        32.26353073120117,
        0.0,
        0.0,
        0.0,
        0.0,
        1.9755713652979366e-15,
        -32.26353073120117,
        0.0,
        0.0,
        32.26353073120117,
        1.9755713652979366e-15,
        0.0,
        -1883.6015625,
        2161.609375,
        2806.1904296875,
        1.0
      ],
      "name": "Cofee_5"
    },
    {
      "mesh": 6,
      "name": "Object_15"
    },
    {
      "children": [
        17
      ],
      "matrix": [
        -10.830219268798828,
        0.0,
        -30.39148712158203,
        0.0,
        -30.39148712158203,
        1.9755713652979366e-15,
        10.830219268798828,
        0.0,
        1.8609419730295385e-15,
        32.26353073120117,
        -6.631596703390473e-16,
        0.0,
        -1644.09765625,
        2161.609375,
        2928.68310546875,
        1.0
      ],
      "name": "Cofee_6"
    },
    {
      "mesh": 7,
      "name": "Object_17"
    },
    {
      "children": [
        19
      ],
      "matrix": [
        99.9998779296875,
        -7.619341886311304e-07,
        -4.129310400458053e-05,
        0.0,
        -4.12023946410045e-05,
        -8.71551513671875,
        -99.61940002441406,
        0.0,
        -2.8398756057868013e-06,
        99.61941528320313,
        -8.71551513671875,
        0.0,
        -1367.703125,
        3168.446533203125,
        2508.05615234375,
        1.0
      ],
      "name": "Retroviseur_7"
    },
    {
      "mesh": 8,
      "name": "Object_19"
    }
  ],
  "samplers": [
    {
      "magFilter": 9729,
      "minFilter": 9987,
      "wrapS": 10497,
      "wrapT": 10497
    }
  ],
  "scene": 0,
  "scenes": [
    {
      "name": "Sketchfab_Scene",
      "nodes": [
        0
      ]
    }
  ],
  "textures": [
    {
      "sampler": 0,
      "source": 0
    },
    {
      "sampler": 0,
      "source": 1
    },
    {
      "sampler": 0,
      "source": 2
    },
    {
      "sampler": 0,
      "source": 3
    },
    {
      "sampler": 0,
      "source": 4
    },
    {
      "sampler": 0,
      "source": 5
    },
    {
      "sampler": 0,
      "source": 6
    },
    {
      "sampler": 0,
      "source": 7
    },
    {
      "sampler": 0,
      "source": 8
    },
    {
      "sampler": 0,
      "source": 9
    },
    {
      "sampler": 0,
      "source": 10
    },
    {
      "sampler": 0,
      "source": 11
    },
    {
      "sampler": 0,
      "source": 12
    },
    {
      "sampler": 0,
      "source": 13
    },
    {
      "sampler": 0,
      "source": 14
    },
    {
      "sampler": 0,
      "source": 15
    },
    {
      "sampler": 0,
      "source": 16
    }
  ]
}
