{
  "accessors": [
    {
      "bufferView": 2,
      "componentType": 5126,
      "count": 1008,
      "max": [
        0.5361095070838928,
        0.8038464188575745,
        0.511242151260376
      ],
      "min": [
        -0.5347135066986084,
        -0.6920455694198608,
        -0.5581308007240295
      ],
      "type": "VEC3"
    },
    {
      "bufferView": 2,
      "byteOffset": 12096,
      "componentType": 5126,
      "count": 1008,
      "max": [
        0.9986296892166138,
        0.9999966621398926,
        0.9986943006515503
      ],
      "min": [
        -0.9985678791999817,
        -0.9999996423721313,
        -0.9997202754020691
      ],
      "type": "VEC3"
    },
    {
      "bufferView": 1,
      "componentType": 5126,
      "count": 1008,
      "max": [
        0.8984670042991638,
        0.5205370187759399
      ],
      "min": [
        0.15040700137615204,
        0.30758798122406006
      ],
      "type": "VEC2"
    },
    {
      "bufferView": 0,
      "componentType": 5125,
      "count": 1062,
      "type": "SCALAR"
    },
    {
      "bufferView": 2,
      "byteOffset": 24192,
      "componentType": 5126,
      "count": 1404,
      "max": [
        0.7582314610481262,
        1.7277244329452515,
        0.6732661724090576
      ],
      "min": [
        -0.8766845464706421,
        0.4870714247226715,
        -0.7941518425941467
      ],
      "type": "VEC3"
    },
    {
      "bufferView": 2,
      "byteOffset": 41040,
      "componentType": 5126,
      "count": 1404,
      "max": [
        0.9982529878616333,
        0.9981955289840698,
        0.9999317526817322
      ],
      "min": [
        -0.9983230233192444,
        -0.9991613030433655,
        -0.9999164938926697
      ],
      "type": "VEC3"
    },
    {
      "bufferView": 1,
      "byteOffset": 8064,
      "componentType": 5126,
      "count": 1404,
      "max": [
        0.8984670042991638,
        0.5205370187759399
      ],
      "min": [
        0.7275099754333496,
        0.49508798122406006
      ],
      "type": "VEC2"
    },
    {
      "bufferView": 0,
      "byteOffset": 4248,
      "componentType": 5125,
      "count": 2106,
      "type": "SCALAR"
    }
  ],
  "asset": {
    "extras": {
      "author": "HanSoloSnipe (https://sketchfab.com/HanSoloSnipe)",
      "license": "CC-BY-4.0 (http://creativecommons.org/licenses/by/4.0/)",
      "source": "https://sketchfab.com/3d-models/pineapple-58103ddeeb294efaaec9455fd63259da",
      "title": "Pineapple"
    },
    "generator": "Sketchfab-12.67.0",
    "version": "2.0"
  },
  "bufferViews": [
    {
      "buffer": 0,
      "byteLength": 12672,
      "name": "floatBufferViews",
      "target": 34963
    },
    {
      "buffer": 0,
      "byteLength": 19296,
      "byteOffset": 12672,
      "byteStride": 8,
      "name": "floatBufferViews",
      "target": 34962
    },
    {
      "buffer": 0,
      "byteLength": 57888,
      "byteOffset": 31968,
      "byteStride": 12,
      "name": "floatBufferViews",
      "target": 34962
    }
  ],
  "buffers": [
    {
      "byteLength": 89856,
      "uri": "scene.bin"
    }
  ],
  "materials": [
    {
      "doubleSided": true,
      "name": "PineApple",
      "pbrMetallicRoughness": {
        "baseColorFactor": [
          1.0,
          0.766667,
          0.0,
          1.0
        ],
        "metallicFactor": 0.0,
        "roughnessFactor": 0.9524317153998911
      }
    },
    {
      "doubleSided": true,
      "name": "Leaf",
      "pbrMetallicRoughness": {
        "baseColorFactor": [
          0.279167,
          0.67,
          0.0,
          1.0
        ],
        "metallicFactor": 0.0,
        "roughnessFactor": 0.9524317153998911
      }
    }
  ],
  "meshes": [
    {
      "name": "PineApple_PineApple_0",
      "primitives": [
        {
          "attributes": {
            "NORMAL": 1,
            "POSITION": 0,
            "TEXCOORD_0": 2
          },
          "indices": 3,
          "material": 0,
          "mode": 4
        }
      ]
    },
    {
      "name": "PineApple_Leaf_0",
      "primitives": [
        {
          "attributes": {
            "NORMAL": 5,
            "POSITION": 4,
            "TEXCOORD_0": 6
          },
          "indices": 7,
          "material": 1,
          "mode": 4
        }
      ]
    }
  ],
  "nodes": [
    {
      "children": [
        1
      ],
      "matrix": [
        1.0,
        0.0,
        0.0,
        0.0,
        0.0,
        2.220446049250313e-16,
        -1.0,
        0.0,
        0.0,
        1.0,
        2.220446049250313e-16,
        0.0,
        0.0,
        0.0,
        0.0,
        1.0
      ],
      "name": "Sketchfab_model"
    },
    {
      "children": [
        2
      ],
      "matrix": [
        1.0,
        0.0,
        0.0,
        0.0,
        0.0,
        0.0,
        1.0,
        0.0,
        0.0,
        -1.0,
        0.0,
        0.0,
        0.0,
        0.0,
        0.0,
        1.0
      ],
      "name": "6fe6c58f9c90499cb94f6e2c3fc9e0ea.fbx"
    },
    {
      "children": [
        3
      ],
      "name": "RootNode"
    },
    {
      "children": [
        4,
        5
      ],
      "matrix": [
        1.0,
        0.0,
        0.0,
        0.0,
        0.0,
        1.0,
        0.0,
        0.0,
        0.0,
        0.0,
        1.0,
        0.0,
        -0.00014381622895598412,
        4.0857819840312004e-05,
        6.781390402466059e-05,
        1.0
      ],
      "name": "PineApple"
    },
    {
      "mesh": 0,
      "name": "PineApple_PineApple_0"
    },
    {
      "mesh": 1,
      "name": "PineApple_Leaf_0"
    }
  ],
  "scene": 0,
  "scenes": [
    {
      "name": "Sketchfab_Scene",
      "nodes": [
        0
      ]
    }
  ]
}
